# xmcd CD database file
#
# Track frame offsets:
#	150
#	14250
#	28622
#	51070
#	66760
#	82527
#	92150
#	110850
#	127112
#	134992
#	144797
#	154970
#	163217
#	173512
#	200590
#	224175
#	239922
#	255535
#
# Disc length: 3576 seconds
#
# Revision: 2
# Processed by: cddbd v1.4PL0 Copyright (c) Steve Scherf et al.
# Submitted via: CDex 1.50
#
DISCID=0f0df612
DTITLE=Leadbelly - Last Sessions Disc 2
DYEAR=1994
DGENRE=Blues
TTITLE0=New Beria
TTITLE1=Dancing with Tears in My Eyes
TTITLE2=John Henry
TTITLE3=Salty Dog
TTITLE4=National Defense Blues
TTITLE5=Easy, Mr. Tom
TTITLE6=Relax Your Mind
TTITLE7=Bottle Up and Go
TTITLE8=Polly Wolly Wee
TTITLE9=Pig Latin Boogie v2
TTITLE10=Hawaiian Song
TTITLE11=Drinkin Lum Y Alla
TTITLE12=The Grey Goose
TTITLE13=Silver City Bound
TTITLE14=The Titanic
TTITLE15=Death Letter Blues
TTITLE16=Mary Don't You Weep
TTITLE17=He Never Said a Mumblin' Word
EXTD=YEAR: 1994
EXTT0=
EXTT1=
EXTT2=
EXTT3=
EXTT4=
EXTT5=
EXTT6=
EXTT7=
EXTT8=
EXTT9=
EXTT10=
EXTT11=
EXTT12=
EXTT13=
EXTT14=
EXTT15=
EXTT16=
EXTT17=
PLAYORDER=
